<svg xmlns="http://www.w3.org/2000/svg" width="509" height="329.384" viewBox="0 0 509 329.384">
  <g id="Монтажная_область_3" data-name="Монтажная область 3" transform="translate(-230.82 -150.735)">
    <path id="Path_10524" data-name="Path 10524" d="M404.82,480.1s-50.786-35.152-14.184-109.97c24.206-49.468,50.853-43.857,46.487-141.07C433.387,145.876,569.1,138.688,612,162.82s38.883,42.657,127.472,33.345c61.649-6.481,92.828,82.951,69.789,123.8-32.686,57.966,68,99.489,29.33,160.132Z" transform="translate(-117.22)" fill="#ebf3fa"/>
    <path id="Path_10525" data-name="Path 10525" d="M1925.76,515.168s4.878-8.551,16.542-7.607c0,0,16.935-14.252,34.994-1.9,0,0,19.2-3.061,33.411,2.648,9.48,3.8,12.611,7.807,12.611,7.807Z" transform="translate(-1351.282 -279.213)" fill="#f8fcff"/>
    <g id="Group_88090" data-name="Group 88090" transform="translate(427.024 249.093)" opacity="0.5">
      <path id="Path_10526" data-name="Path 10526" d="M1222.325,670.322s-4.322-20.7-16.13-32.25a2.347,2.347,0,0,0-3.966,1.942l.012.11C1202.706,643.844,1216.08,658.54,1222.325,670.322Z" transform="translate(-1202.214 -637.402)" fill="#c5ddff"/>
    </g>
    <g id="Group_88091" data-name="Group 88091" transform="translate(413.019 252.449)" opacity="0.5">
      <path id="Path_10527" data-name="Path 10527" d="M1168.475,689.447s-12.961-25.222-32.214-35.189a2.492,2.492,0,0,0-3.311.931c-.424.749-.546,1.872.15,3.549C1134.954,663.211,1156.653,676.916,1168.475,689.447Z" transform="translate(-1132.605 -653.968)" fill="#c5ddff"/>
    </g>
    <g id="Group_88092" data-name="Group 88092" transform="translate(606.74 347.686)" opacity="0.5">
      <path id="Path_10528" data-name="Path 10528" d="M2091.79,1154.373s8.159-19.511,21.937-28.625a2.35,2.35,0,0,1,3.529,2.656c-.01.034-.022.07-.034.106C2116.063,1132.091,2100.151,1143.982,2091.79,1154.373Z" transform="translate(-2091.79 -1125.357)" fill="#c5ddff"/>
    </g>
    <g id="Group_88093" data-name="Group 88093" transform="translate(603.925 353.609)" opacity="0.5">
      <path id="Path_10529" data-name="Path 10529" d="M2077.28,1183.252s17.5-22.307,38.289-28.459a2.494,2.494,0,0,1,3.075,1.539c.274.817.182,1.942-.819,3.457C2115.156,1163.831,2091.26,1173.185,2077.28,1183.252Z" transform="translate(-2077.28 -1154.684)" fill="#c5ddff"/>
    </g>
    <path id="Path_10530" data-name="Path 10530" d="M2102.939,1265.112c-4.818-13.706-28.1-7.607-28.1-7.607s-14.212,25.652-18.842,26.579,7.879-24.307,7.879-24.307c-9.1-.2-31.3,12.557-31.3,12.557s3.559,28.445-1.145,28.2-1.866-25.348-1.866-25.348c-8.549,3.267-15.956,14.064-15.956,14.064-8.976,17.359,13.778,27.986,13.778,27.986a46.6,46.6,0,0,1-4.262,21.7h0a33.847,33.847,0,0,0-2.368,5.869l2.384-.176c.146-.653.316-1.287.51-1.9v-.028c.136-.378.332-.921.577-1.58h0c.625-1.479,1.039-2.568,1.293-3.351,1.852-4.634,4.566-10.693,6.572-12.071a4.691,4.691,0,0,1-.591-1.057l.591,1.057c4.722,8.439,25.222,8.4,36.415,5.229s6.006-6.005-.5-10.759-19.217-2.436-23.158-4.2,1.447-4.2,9.066-4.182,11.962,7.32,24.285,7.587,19.954-23.44,19.954-23.44c-8.257,3.245-23.751-.3-24.547-3.173s21.659-4.23,25.09-5.363S2107.756,1278.818,2102.939,1265.112Z" transform="translate(-1419.873 -881.31)" fill="#dfebf9"/>
    <path id="Path_10531" data-name="Path 10531" d="M847.253,706.112c4.636-13.192,27.041-7.318,27.041-7.318s13.688,24.691,18.134,25.582S884.846,701,884.846,701c8.756-.2,30.124,12.084,30.124,12.084s-3.425,27.378,1.1,27.148,1.8-24.4,1.8-24.4c8.227,3.145,15.357,13.536,15.357,13.536,8.638,16.706-13.261,26.937-13.261,26.937a44.884,44.884,0,0,0,4.1,20.884h0a32.465,32.465,0,0,1,2.28,5.649l-2.294-.17c-.142-.629-.3-1.237-.491-1.826a.232.232,0,0,1,0-.026c-.132-.366-.32-.887-.556-1.521h0c-.6-1.423-1-2.472-1.245-3.225-1.782-4.46-4.4-10.293-6.323-11.61a4.447,4.447,0,0,0,.568-1.015c-.182.322-.37.661-.568,1.015-4.546,8.123-24.279,8.081-35.05,5.032s-5.777-5.783.48-10.355,18.5-2.344,22.289-4.039-1.4-4.049-8.725-4.026-11.514,7.046-23.374,7.3-19.2-22.558-19.2-22.558c7.947,3.121,22.86-.292,23.621-3.055s-20.846-4.071-24.149-5.161S842.617,719.3,847.253,706.112Z" transform="translate(-490.303 -436.024)" fill="#dfebf9"/>
    <rect id="Rectangle_6218" data-name="Rectangle 6218" width="142.129" height="238.937" transform="translate(474.317 240.489)" fill="#cde0fb"/>
    <rect id="Rectangle_6219" data-name="Rectangle 6219" width="11.89" height="0.548" transform="translate(616.941 268.013)" fill="#163560"/>
    <rect id="Rectangle_6220" data-name="Rectangle 6220" width="11.89" height="0.548" transform="translate(616.941 326.677)" fill="#163560"/>
    <rect id="Rectangle_6221" data-name="Rectangle 6221" width="18.346" height="83.378" rx="9.173" transform="translate(628.363 258.256)" fill="#fba710"/>
    <rect id="Rectangle_6222" data-name="Rectangle 6222" width="27.22" height="39.428" transform="translate(574.812 260.381)" fill="#afcdfb"/>
    <path id="Path_10532" data-name="Path 10532" d="M1946.214,693.14s.291,13.143-12.535,23.342V693.14Z" transform="translate(-1358.961 -432.816)" fill="#d9eaff"/>
    <path id="Path_10533" data-name="Path 10533" d="M2009.728,693.14s-.279,13.143,12,23.342V693.14Z" transform="translate(-1419.654 -432.816)" fill="#d9eaff"/>
    <rect id="Rectangle_6223" data-name="Rectangle 6223" width="0.683" height="39.428" transform="translate(588.376 260.381)" fill="#fff"/>
    <rect id="Rectangle_6224" data-name="Rectangle 6224" width="27.222" height="0.548" transform="translate(574.812 272.025)" fill="#fff"/>
    <rect id="Rectangle_6225" data-name="Rectangle 6225" width="27.222" height="0.548" transform="translate(574.812 286.441)" fill="#fff"/>
    <path id="Path_10534" data-name="Path 10534" d="M1959.041,730.675H1930.58V690h28.461Zm-27.224-1.239H1957.8V691.247h-25.977Z" transform="translate(-1356.386 -430.249)" fill="#fff"/>
    <rect id="Rectangle_6226" data-name="Rectangle 6226" width="27.22" height="39.428" transform="translate(531.599 260.381)" fill="#afcdfb"/>
    <path id="Path_10535" data-name="Path 10535" d="M1732.295,693.14s.292,13.143-12.535,23.342V693.14Z" transform="translate(-1188.243 -432.816)" fill="#d9eaff"/>
    <path id="Path_10536" data-name="Path 10536" d="M1795.808,693.14s-.278,13.143,12,23.342V693.14Z" transform="translate(-1248.935 -432.816)" fill="#d9eaff"/>
    <rect id="Rectangle_6227" data-name="Rectangle 6227" width="0.683" height="39.428" transform="translate(545.185 260.381)" fill="#fff"/>
    <rect id="Rectangle_6228" data-name="Rectangle 6228" width="27.222" height="0.548" transform="translate(531.599 272.025)" fill="#fff"/>
    <rect id="Rectangle_6229" data-name="Rectangle 6229" width="27.222" height="0.548" transform="translate(531.599 286.441)" fill="#fff"/>
    <path id="Path_10537" data-name="Path 10537" d="M1745.13,730.675H1716.67V690h28.461Zm-27.224-1.239h25.981V691.247h-25.979Z" transform="translate(-1185.688 -430.249)" fill="#fff"/>
    <rect id="Rectangle_6230" data-name="Rectangle 6230" width="27.22" height="39.428" transform="translate(488.387 260.381)" fill="#afcdfb"/>
    <path id="Path_10538" data-name="Path 10538" d="M1518.385,693.14s.29,13.143-12.535,23.342V693.14Z" transform="translate(-1017.533 -432.816)" fill="#d9eaff"/>
    <path id="Path_10539" data-name="Path 10539" d="M1581.9,693.14s-.278,13.143,12,23.342V693.14Z" transform="translate(-1078.225 -432.816)" fill="#d9eaff"/>
    <rect id="Rectangle_6231" data-name="Rectangle 6231" width="0.683" height="39.428" transform="translate(501.992 260.381)" fill="#fff"/>
    <rect id="Rectangle_6232" data-name="Rectangle 6232" width="27.222" height="0.548" transform="translate(488.387 272.025)" fill="#fff"/>
    <rect id="Rectangle_6233" data-name="Rectangle 6233" width="27.222" height="0.548" transform="translate(488.387 286.441)" fill="#fff"/>
    <path id="Path_10540" data-name="Path 10540" d="M1531.211,730.675H1502.75V690h28.461ZM1504,729.434h25.979V691.247H1504Z" transform="translate(-1014.983 -430.249)" fill="#fff"/>
    <rect id="Rectangle_6234" data-name="Rectangle 6234" width="27.22" height="39.428" transform="translate(574.812 320.17)" fill="#afcdfb"/>
    <path id="Path_10541" data-name="Path 10541" d="M1946.214,988.91s.291,13.143-12.535,23.342V988.91Z" transform="translate(-1358.961 -668.827)" fill="#d9eaff"/>
    <path id="Path_10542" data-name="Path 10542" d="M2009.728,988.91s-.279,13.143,12,23.342V988.91Z" transform="translate(-1419.654 -668.827)" fill="#d9eaff"/>
    <rect id="Rectangle_6235" data-name="Rectangle 6235" width="0.683" height="39.428" transform="translate(588.376 320.17)" fill="#fff"/>
    <rect id="Rectangle_6236" data-name="Rectangle 6236" width="27.222" height="0.548" transform="translate(574.812 331.745)" fill="#fff"/>
    <rect id="Rectangle_6237" data-name="Rectangle 6237" width="27.222" height="0.548" transform="translate(574.812 346.163)" fill="#fff"/>
    <path id="Path_10543" data-name="Path 10543" d="M1959.041,1026.483H1930.58V985.81h28.461Zm-27.224-1.241H1957.8V987.049h-25.977Z" transform="translate(-1356.386 -666.259)" fill="#fff"/>
    <rect id="Rectangle_6238" data-name="Rectangle 6238" width="27.22" height="39.428" transform="translate(531.599 320.17)" fill="#afcdfb"/>
    <path id="Path_10544" data-name="Path 10544" d="M1732.295,988.91s.292,13.143-12.535,23.342V988.91Z" transform="translate(-1188.243 -668.827)" fill="#d9eaff"/>
    <path id="Path_10545" data-name="Path 10545" d="M1795.808,988.91s-.278,13.143,12,23.342V988.91Z" transform="translate(-1248.935 -668.827)" fill="#d9eaff"/>
    <rect id="Rectangle_6239" data-name="Rectangle 6239" width="0.683" height="39.428" transform="translate(545.185 320.17)" fill="#fff"/>
    <rect id="Rectangle_6240" data-name="Rectangle 6240" width="27.222" height="0.548" transform="translate(531.599 331.745)" fill="#fff"/>
    <rect id="Rectangle_6241" data-name="Rectangle 6241" width="27.222" height="0.548" transform="translate(531.599 346.163)" fill="#fff"/>
    <path id="Path_10546" data-name="Path 10546" d="M1745.13,1026.483H1716.67V985.81h28.461Zm-27.224-1.241h25.981V987.049h-25.979Z" transform="translate(-1185.688 -666.259)" fill="#fff"/>
    <rect id="Rectangle_6242" data-name="Rectangle 6242" width="27.22" height="39.428" transform="translate(488.387 320.17)" fill="#afcdfb"/>
    <path id="Path_10547" data-name="Path 10547" d="M1518.385,988.91s.29,13.143-12.535,23.342V988.91Z" transform="translate(-1017.533 -668.827)" fill="#d9eaff"/>
    <path id="Path_10548" data-name="Path 10548" d="M1581.9,988.91s-.278,13.143,12,23.342V988.91Z" transform="translate(-1078.225 -668.827)" fill="#d9eaff"/>
    <rect id="Rectangle_6243" data-name="Rectangle 6243" width="0.683" height="39.428" transform="translate(501.992 320.17)" fill="#fff"/>
    <rect id="Rectangle_6244" data-name="Rectangle 6244" width="27.222" height="0.548" transform="translate(488.387 331.745)" fill="#fff"/>
    <rect id="Rectangle_6245" data-name="Rectangle 6245" width="27.222" height="0.548" transform="translate(488.387 346.163)" fill="#fff"/>
    <path id="Path_10549" data-name="Path 10549" d="M1531.211,1026.483H1502.75V985.81h28.461Zm-27.224-1.241h25.979V987.049H1504Z" transform="translate(-1014.983 -666.259)" fill="#fff"/>
    <rect id="Rectangle_6246" data-name="Rectangle 6246" width="27.22" height="39.428" transform="translate(531.599 379.96)" fill="#afcdfb"/>
    <path id="Path_10550" data-name="Path 10550" d="M1732.295,1284.68s.292,13.143-12.535,23.342V1284.68Z" transform="translate(-1188.243 -904.839)" fill="#d9eaff"/>
    <path id="Path_10551" data-name="Path 10551" d="M1795.808,1284.68s-.278,13.143,12,23.342V1284.68Z" transform="translate(-1248.935 -904.839)" fill="#d9eaff"/>
    <rect id="Rectangle_6247" data-name="Rectangle 6247" width="0.683" height="39.428" transform="translate(545.185 379.96)" fill="#fff"/>
    <rect id="Rectangle_6248" data-name="Rectangle 6248" width="27.222" height="0.548" transform="translate(531.599 391.466)" fill="#fff"/>
    <rect id="Rectangle_6249" data-name="Rectangle 6249" width="27.222" height="0.548" transform="translate(531.599 405.883)" fill="#fff"/>
    <path id="Path_10552" data-name="Path 10552" d="M1745.13,1322.249H1716.67V1281.58h28.461Zm-27.224-1.241h25.981v-38.187h-25.979Z" transform="translate(-1185.688 -902.237)" fill="#fff"/>
    <rect id="Rectangle_6250" data-name="Rectangle 6250" width="27.22" height="39.428" transform="translate(488.387 379.96)" fill="#afcdfb"/>
    <path id="Path_10553" data-name="Path 10553" d="M1518.385,1284.68s.29,13.143-12.535,23.342V1284.68Z" transform="translate(-1017.533 -904.839)" fill="#d9eaff"/>
    <path id="Path_10554" data-name="Path 10554" d="M1581.9,1284.68s-.278,13.143,12,23.342V1284.68Z" transform="translate(-1078.225 -904.839)" fill="#d9eaff"/>
    <rect id="Rectangle_6251" data-name="Rectangle 6251" width="0.683" height="39.428" transform="translate(501.992 379.96)" fill="#fff"/>
    <rect id="Rectangle_6252" data-name="Rectangle 6252" width="27.222" height="0.548" transform="translate(488.387 391.466)" fill="#fff"/>
    <rect id="Rectangle_6253" data-name="Rectangle 6253" width="27.222" height="0.548" transform="translate(488.387 405.883)" fill="#fff"/>
    <path id="Path_10555" data-name="Path 10555" d="M1531.211,1322.249H1502.75V1281.58h28.461Zm-27.224-1.241h25.979v-38.187H1504Z" transform="translate(-1014.983 -902.237)" fill="#fff"/>
    <rect id="Rectangle_6254" data-name="Rectangle 6254" width="146.047" height="32.674" transform="translate(472.734 446.746)" fill="#afcdfb"/>
    <path id="Path_10556" data-name="Path 10556" d="M1203.215,781.485l-.062,179.061a10.649,10.649,0,0,1-10.649,10.647l-93.607-.032a10.649,10.649,0,0,1-10.647-10.651l.062-179.065a10.649,10.649,0,0,1,10.655-10.645l93.6.032A10.649,10.649,0,0,1,1203.215,781.485Z" transform="translate(-683.867 -493.112)" fill="#0984b4"/>
    <path id="Path_10557" data-name="Path 10557" d="M1187.158,967.188l-93.6-.032a12.011,12.011,0,0,1-11.984-11.99l.062-179.063a12.01,12.01,0,0,1,11.992-11.982l93.6.032a12.01,12.01,0,0,1,11.984,11.992l-.062,179.061a12.01,12.01,0,0,1-11.992,11.982Zm-93.535-200.394a9.324,9.324,0,0,0-9.316,9.312l-.062,179.061a9.324,9.324,0,0,0,9.31,9.318l93.605.032a9.324,9.324,0,0,0,9.316-9.312l.062-179.061a9.324,9.324,0,0,0-9.31-9.316Z" transform="translate(-678.526 -487.769)" fill="#06b9ff"/>
    <path id="Path_10558" data-name="Path 10558" d="M1240.363,1310v66.257a7.957,7.957,0,0,1-7.957,7.957h-77.081a7.955,7.955,0,0,1-7.955-7.957V1310a7.955,7.955,0,0,1,7.955-7.957h77.081a7.953,7.953,0,0,1,7.957,7.957Z" transform="translate(-731.13 -918.012)" fill="#ebf2ff"/>
    <rect id="Rectangle_6255" data-name="Rectangle 6255" width="92.993" height="37.945" rx="18.972" transform="translate(416.238 338.407)" fill="#ebf2ff"/>
    <path id="Path_10559" data-name="Path 10559" d="M1334.432,1149.385h-22.439a.5.5,0,0,1-.5-.5h0a.5.5,0,0,1,.5-.5h22.439a.5.5,0,0,1,.5.5h0A.5.5,0,0,1,1334.432,1149.385Z" transform="translate(-862.381 -796.206)" fill="#2b478b"/>
    <path id="Path_10560" data-name="Path 10560" d="M1349.443,1167.523h-37.45a.5.5,0,0,1-.5-.5h0a.5.5,0,0,1,.5-.5h37.45a.5.5,0,0,1,.5.5h0a.5.5,0,0,1-.5.5Z" transform="translate(-862.318 -810.683)" fill="#2b478b"/>
    <rect id="Rectangle_6256" data-name="Rectangle 6256" width="21.459" height="21.459" transform="translate(422.449 347.527)" fill="#c2cfff"/>
    <path id="Path_10561" data-name="Path 10561" d="M1199.42,1170.157l4.686-8.447,3.447,4.7,1.719-1.881,3.647,5.629Z" transform="translate(-772.984 -806.803)" fill="#aabdf2"/>
    <path id="Path_10562" data-name="Path 10562" d="M1234,1150.8a1.213,1.213,0,1,1,1.213,1.213A1.213,1.213,0,0,1,1234,1150.8Z" transform="translate(-800.62 -797.164)" fill="#aabdf2"/>
    <rect id="Rectangle_6257" data-name="Rectangle 6257" width="37.815" height="2.2" rx="1.1" transform="translate(449.105 347.42)" fill="#2b478b"/>
    <path id="Path_10563" data-name="Path 10563" d="M1315.235,1190.8l3.091.446-2.234,2.182.531,3.077-2.767-1.449-2.762,1.455.524-3.079-2.238-2.178,3.091-.452,1.379-2.8Z" transform="translate(-860.755 -827.783)" fill="#fba710"/>
    <path id="Path_10564" data-name="Path 10564" d="M1368.715,1190.8l3.091.446-2.236,2.182.532,3.077-2.766-1.449-2.762,1.455.524-3.079-2.238-2.178,3.091-.452,1.379-2.8Z" transform="translate(-903.435 -827.783)" fill="#fba710"/>
    <path id="Path_10565" data-name="Path 10565" d="M1422.193,1190.8l3.093.446-2.236,2.182.532,3.077-2.766-1.449-2.762,1.455.524-3.079-2.238-2.178,3.089-.452,1.379-2.8Z" transform="translate(-946.115 -827.783)" fill="#fba710"/>
    <path id="Path_10566" data-name="Path 10566" d="M1475.665,1190.8l3.091.446-2.234,2.182.53,3.077-2.764-1.449-2.764,1.455.526-3.079-2.24-2.178,3.091-.452,1.379-2.8Z" transform="translate(-988.787 -827.783)" fill="#fba710"/>
    <path id="Path_10567" data-name="Path 10567" d="M1529.145,1190.8l3.091.446-2.234,2.182.53,3.077-2.766-1.449-2.762,1.455.526-3.079-2.24-2.178,3.091-.452,1.379-2.8Z" transform="translate(-1031.467 -827.783)" fill="#fba710"/>
    <rect id="Rectangle_6258" data-name="Rectangle 6258" width="92.993" height="37.945" rx="18.972" transform="translate(416.238 294.007)" fill="#ebf2ff"/>
    <path id="Path_10568" data-name="Path 10568" d="M1334.432,929.745h-22.439a.5.5,0,0,1-.5-.5h0a.5.5,0,0,1,.5-.5h22.439a.5.5,0,0,1,.5.5h0A.5.5,0,0,1,1334.432,929.745Z" transform="translate(-862.381 -620.914)" fill="#0984b4"/>
    <path id="Path_10569" data-name="Path 10569" d="M1349.443,947.883h-37.45a.5.5,0,0,1-.5-.5h0a.5.5,0,0,1,.5-.5h37.45a.5.5,0,0,1,.5.5h0a.5.5,0,0,1-.5.5Z" transform="translate(-862.318 -635.391)" fill="#0984b4"/>
    <rect id="Rectangle_6259" data-name="Rectangle 6259" width="21.459" height="21.459" transform="translate(422.449 303.153)" fill="#c2cfff"/>
    <path id="Path_10570" data-name="Path 10570" d="M1199.42,950.517l4.686-8.447,3.447,4.7,1.719-1.882,3.647,5.629Z" transform="translate(-772.984 -631.52)" fill="#aabdf2"/>
    <path id="Path_10571" data-name="Path 10571" d="M1234,931.153a1.213,1.213,0,1,1,1.213,1.213A1.213,1.213,0,0,1,1234,931.153Z" transform="translate(-800.62 -621.866)" fill="#aabdf2"/>
    <rect id="Rectangle_6260" data-name="Rectangle 6260" width="37.815" height="2.2" rx="1.1" transform="translate(449.105 303.07)" fill="#0984b4"/>
    <path id="Path_10572" data-name="Path 10572" d="M1315.235,971.158l3.091.446-2.234,2.182.531,3.077-2.767-1.449-2.762,1.455.524-3.079-2.238-2.178,3.091-.452,1.379-2.8Z" transform="translate(-860.755 -652.501)" fill="#fba710"/>
    <path id="Path_10573" data-name="Path 10573" d="M1368.715,971.158l3.091.446-2.236,2.182.532,3.077-2.766-1.449-2.762,1.455.524-3.079-2.238-2.178,3.091-.452,1.379-2.8Z" transform="translate(-903.435 -652.501)" fill="#fba710"/>
    <path id="Path_10574" data-name="Path 10574" d="M1422.193,971.158l3.093.446-2.236,2.182.532,3.077-2.766-1.449-2.762,1.455.524-3.079-2.238-2.178,3.089-.452,1.379-2.8Z" transform="translate(-946.115 -652.501)" fill="#fba710"/>
    <path id="Path_10575" data-name="Path 10575" d="M1475.665,971.158l3.091.446-2.234,2.182.53,3.077-2.764-1.449-2.764,1.455.526-3.079-2.24-2.178,3.091-.452,1.379-2.8Z" transform="translate(-988.787 -652.501)" fill="#fba710"/>
    <path id="Path_10576" data-name="Path 10576" d="M1529.145,971.158l3.091.446L1530,973.787l.53,3.077-2.766-1.449L1525,976.869l.526-3.079-2.24-2.178,3.091-.452,1.379-2.8Z" transform="translate(-1031.467 -652.501)" fill="#fba710"/>
    <g id="Group_88094" data-name="Group 88094" transform="translate(422.524 387.022)" opacity="0.3">
      <path id="Path_10577" data-name="Path 10577" d="M1257.537,1427.764a14.113,14.113,0,0,0-1.872-.124h-.308a14.038,14.038,0,0,0,0,28.068h.308a13.728,13.728,0,0,0,1.872-.124,14.05,14.05,0,0,0,12.01-11.734,14.5,14.5,0,0,0,.166-2.18A14.043,14.043,0,0,0,1257.537,1427.764Zm0,23.186a9.465,9.465,0,0,1-1.872.186h-.308a9.458,9.458,0,0,1,0-18.9h.308a9.456,9.456,0,0,1,1.872,18.726Z" transform="translate(-1229.059 -1405.493)" fill="#739af0"/>
      <path id="Path_10578" data-name="Path 10578" d="M1195.881,1497.78a9.425,9.425,0,0,0,.252,2.18h-17.4v-2.18Z" transform="translate(-1178.73 -1461.593)" fill="#739af0"/>
      <path id="Path_10579" data-name="Path 10579" d="M1402.255,1497.78v2.18H1357.63a9.526,9.526,0,0,0,.252-2.18Z" transform="translate(-1321.819 -1461.593)" fill="#739af0"/>
      <path id="Path_10580" data-name="Path 10580" d="M1312.29,1317v26.913a9.464,9.464,0,0,0-1.871-.186h-.308V1317Z" transform="translate(-1283.811 -1317)" fill="#739af0"/>
      <path id="Path_10581" data-name="Path 10581" d="M1312.29,1544.09v29.095h-2.18v-28.913h.308A9.489,9.489,0,0,0,1312.29,1544.09Z" transform="translate(-1283.811 -1498.632)" fill="#739af0"/>
      <path id="Path_10582" data-name="Path 10582" d="M1569.66,1317.01v39.706h2.182v-39.534Z" transform="translate(-1491.406 -1317.008)" fill="#739af0"/>
      <rect id="Rectangle_6261" data-name="Rectangle 6261" width="2.182" height="74.549" transform="translate(53.649 0.002)" fill="#739af0"/>
      <rect id="Rectangle_6262" data-name="Rectangle 6262" width="10.783" height="16.747" transform="translate(31.337 2.766)" fill="#739af0"/>
      <rect id="Rectangle_6263" data-name="Rectangle 6263" width="10.511" height="12.034" transform="translate(0.002 15.369)" fill="#739af0"/>
      <rect id="Rectangle_6264" data-name="Rectangle 6264" width="21.152" height="10.511" transform="translate(0.002 2.766)" fill="#739af0"/>
      <rect id="Rectangle_6265" data-name="Rectangle 6265" width="7.543" height="10.409" transform="translate(43.942 2.766)" fill="#739af0"/>
      <rect id="Rectangle_6266" data-name="Rectangle 6266" width="7.543" height="17.397" transform="translate(43.942 15.369)" fill="#739af0"/>
      <rect id="Rectangle_6267" data-name="Rectangle 6267" width="7.543" height="10.299" transform="translate(43.942 40.433)" fill="#739af0"/>
      <rect id="Rectangle_6268" data-name="Rectangle 6268" width="6.085" height="30" transform="translate(60.675 2.766)" fill="#739af0"/>
      <rect id="Rectangle_6269" data-name="Rectangle 6269" width="7.543" height="30" transform="translate(68.736 2.766)" fill="#739af0"/>
      <rect id="Rectangle_6270" data-name="Rectangle 6270" width="20.916" height="33.023" transform="translate(59.52 41.528)" fill="#739af0"/>
      <rect id="Rectangle_6271" data-name="Rectangle 6271" width="20.816" height="12.489" transform="translate(30.669 62.062)" fill="#739af0"/>
      <rect id="Rectangle_6272" data-name="Rectangle 6272" width="20.816" height="6.62" transform="translate(30.669 53.088)" fill="#739af0"/>
      <rect id="Rectangle_6273" data-name="Rectangle 6273" width="18.698" height="21.465" transform="translate(0.002 53.088)" fill="#739af0"/>
      <rect id="Rectangle_6274" data-name="Rectangle 6274" width="7.873" height="11.566" transform="translate(0.002 39.534)" fill="#739af0"/>
    </g>
    <path id="Path_10583" data-name="Path 10583" d="M719.637,1202.471c0-.1,1.465-3.129,1-3.363s-1.3-.2-1.4.334A18.115,18.115,0,0,0,719.637,1202.471Z" transform="translate(-390.638 -836.566)" fill="#ffb27d"/>
    <path id="Path_10584" data-name="Path 10584" d="M700.594,1193.991c0-.3-.344-4.834-1.109-5.737s-2.328-2.188-2.818-2.148-2.414,2.6-1.836,4.55,3.017,4.6,3.017,4.6Z" transform="translate(-371.042 -826.267)" fill="#ffb27d"/>
    <path id="Path_10585" data-name="Path 10585" d="M709.211,1161.865l-4.454,1.335a.28.28,0,0,1-.348-.188l-2.546-8.5a.278.278,0,0,1,.186-.346l4.456-1.337a.28.28,0,0,1,.348.188l2.546,8.5A.28.28,0,0,1,709.211,1161.865Z" transform="translate(-375.913 -799.699)" fill="#f1a34f"/>
    <rect id="Rectangle_6275" data-name="Rectangle 6275" width="5.211" height="9.428" rx="2.48" transform="translate(324.897 354.86) rotate(-16.68)" fill="#d86713"/>
    <path id="Path_10586" data-name="Path 10586" d="M702.13,1176.961s1.856-2.854,2.308-2.7c.648.226-1.682,3.849-1.682,3.849s1.726-2.706,2-2.5c.615.464-.364,2.166-1.333,3.469,0,0,1.735-1.589,1.792-1.3.2,1-1.906,3.431-1.906,3.431l-1.175-2.684Z" transform="translate(-376.966 -816.826)" fill="#ffb27d"/>
    <path id="Path_10587" data-name="Path 10587" d="M695.18,1174.777c.09-.35.542-7.166.737-6.52s.655,4.222.655,4.222Z" transform="translate(-371.407 -812.004)" fill="#ffb27d"/>
    <path id="Path_10588" data-name="Path 10588" d="M736.177,1152.508a50.808,50.808,0,0,1-2.332,13.394c-1.687,4.724-4.59,8.555-9.564,7.14-.51-.146-1-.3-1.481-.469h0a22.756,22.756,0,0,1-13.38-11.582c.753-1.241,2.935-1.7,2.935-1.7,2.036.11,10.982,3.909,11.552,4.025,2.07.414,3.741-10.955,5.086-14.895s6.848-5.7,6.848-5.7Z" transform="translate(-381.92 -791.516)" fill="#739af0"/>
    <path id="Path_10589" data-name="Path 10589" d="M787.476,1231.821l-.2,5.341c-1.687,4.724-4.59,8.555-9.564,7.14-.51-.146-1-.3-1.481-.468.16.02,3.2.432,4.48-.843,1.311-1.311,1.173-5.657,3.587-8.553S787.476,1231.821,787.476,1231.821Z" transform="translate(-435.265 -862.722)" fill="#5283db"/>
    <path id="Path_10590" data-name="Path 10590" d="M797.825,1715.465s2.488,2.272,2,3.885-2.73,2.688-3.035,4.66-1.517,3.047-2.6,3.047h-5.2s-.8-1.387,1.137-1.8,2.666-2.736,2.538-4.89a36.619,36.619,0,0,1,.182-5.018l4.126-.957Z" transform="translate(-445.314 -1247.82)" fill="#0b2442"/>
    <path id="Path_10591" data-name="Path 10591" d="M696.86,1728.5h15.333a1.109,1.109,0,0,0,1.111-1.077,7.834,7.834,0,0,0-.548-3.307c-.819-1.815-1.335-2.134,2.122-7.406-1.039,1.071-3.841.582-6.205.264-.29.469-4.678,7.249-5.645,7.943C701.956,1725.677,697.188,1725.4,696.86,1728.5Z" transform="translate(-371.912 -1249.676)" fill="#0b2442"/>
    <path id="Path_10592" data-name="Path 10592" d="M758.682,1344.185s-11.116,20.978-14.138,32.53c-2.344,8.966,11.966,43.656,11.966,43.656a11.422,11.422,0,0,0,3.079-.827,4.992,4.992,0,0,0,2.586-2.712s-.849-24.8-3.745-36.8c-.651-2.694,3.151-11.382,9.564-16.142s9.084-20.065,5.259-21.1S758.682,1344.185,758.682,1344.185Z" transform="translate(-409.733 -950.393)" fill="#163560"/>
    <path id="Path_10593" data-name="Path 10593" d="M766.261,1321.07s-11.686,42.837-15.233,52.464-9.168,30.04-9.168,30.04a14.812,14.812,0,0,0,8.107.881s17.091-25.036,17.834-36.1c.344-5.117,17.535-25.392,15.613-38.614Z" transform="translate(-407.776 -933.233)" fill="#1c468a"/>
    <path id="Path_10594" data-name="Path 10594" d="M830.971,1186.018a20.337,20.337,0,0,1-6.884,1.624h0c-5.034.422-12.575-.318-21.757-5.431,0,0-2.562-2.112.585-11.088,2.382-6.794,3.543-21.12,6.449-34.176,0,0,9.432-2.958,17-.4,5.781,1.956,5.2,10.827,6.273,20.065q.147,1.294.346,2.6C834.558,1169.316,830.971,1186.018,830.971,1186.018Z" transform="translate(-455.265 -785.611)" fill="#739af0"/>
    <path id="Path_10595" data-name="Path 10595" d="M824.77,1019.67s6.438-10.477,11.422-5.084c0,0,3.259.833,5.126,5.905,1.9,5.177-1.063,9.749-3.043,9.008-1.271-.474-1.866,1.716-1.866,1.716Z" transform="translate(-473.989 -688.112)" fill="#233862"/>
    <path id="Path_10596" data-name="Path 10596" d="M876.9,1000.86s.442-4.338,6.782-3.915c0,0-3,.052-3.641,1.3,0,0,2.18-1.4,3.769-.721s2.264,3.657,2.178,4.6-1.307,3.906-2.376,4.06a4.966,4.966,0,0,1-2.468-.6Z" transform="translate(-515.61 -675.285)" fill="#233862"/>
    <path id="Path_10597" data-name="Path 10597" d="M856.938,1106.131a29.269,29.269,0,0,1-2.2-8.321l-.38.134-6.405,2.254s.448,2.052.735,4c.116.8.2,2.222.254,3.465.056,1.273,1.307,1.4,2.578,1.333C854.916,1108.844,856.781,1107.582,856.938,1106.131Z" transform="translate(-492.506 -755.793)" fill="#ffb27d"/>
    <path id="Path_10598" data-name="Path 10598" d="M848,1100.734s.448,2.052.734,4c3.671-.636,5.135-4.278,5.663-6.257Z" transform="translate(-492.552 -756.354)" fill="#e8945b"/>
    <path id="Path_10599" data-name="Path 10599" d="M832.683,1042.254a19.529,19.529,0,0,0,1.579-6.005c.062-1.91-1.882-8.68-8.677-6.684a9.512,9.512,0,0,0-3.7,2.042c-1.359,1.235-3.217,3.745.082,9.42l.931,1.946Z" transform="translate(-470.287 -701.028)" fill="#233862"/>
    <path id="Path_10600" data-name="Path 10600" d="M825.584,1058.566s8.741-1.113,7.965-6.546-.172-9.234-5.787-8.753-6.406,2.708-6.58,4.584S823.29,1058.716,825.584,1058.566Z" transform="translate(-471.129 -712.212)" fill="#ffb27d"/>
    <path id="Path_10601" data-name="Path 10601" d="M834.16,1039.774s3.3,6.029,7.106,6.443,5.247-.8,5.247-.8a10.482,10.482,0,0,1-4.278-5.641S835.529,1036.481,834.16,1039.774Z" transform="translate(-481.494 -708.328)" fill="#233862"/>
    <path id="Path_10602" data-name="Path 10602" d="M821.427,1044.469a7.765,7.765,0,0,0-1.812,3.127c-.234,1.447-.022,4.322-.865,4.344,0,0-2.424-4.072-.755-6.806C819.765,1042.218,821.427,1044.469,821.427,1044.469Z" transform="translate(-468.143 -712.578)" fill="#233862"/>
    <path id="Path_10603" data-name="Path 10603" d="M836,1041.721s2.662,6.428,7.592,7.9c0,0-5.2-3.435-6.241-7.783S836,1041.721,836,1041.721Z" transform="translate(-482.972 -709.566)" fill="#233862"/>
    <path id="Path_10604" data-name="Path 10604" d="M915.9,1267.461a20.335,20.335,0,0,1-6.884,1.623h0a7.728,7.728,0,0,1,.416-9.608c4.02-5.078-.314-14.441,2.79-19.535,2.16-3.543,4.262-2.718,5.343-1.892q.147,1.294.346,2.6C919.488,1250.759,915.9,1267.461,915.9,1267.461Z" transform="translate(-540.052 -866.999)" fill="#5283db"/>
    <path id="Path_10605" data-name="Path 10605" d="M1017.96,1350.25s.536,1.247,1.285,1.331a15.747,15.747,0,0,1,3.915,1.377c1,.589.923,3.219-.068,3.467s-1.485-1.962-4.58-2.552c-1.049-.2-2.58.524-3.2-1.99Z" transform="translate(-626.071 -957.281)" fill="#ffb27d"/>
    <path id="Path_10606" data-name="Path 10606" d="M918.88,1140.417c9.008,3.311,9.332,19.255,13.346,26.277,4.137,7.242,8.167,16.775,8.167,16.775s-.072.284-1.615.727a6.435,6.435,0,0,1-2.222.18s-8.5-7.693-10.809-10.727-7.757-17.113-7.757-17.113S915.306,1139.1,918.88,1140.417Z" transform="translate(-547.594 -789.532)" fill="#739af0"/>
    <path id="Path_10607" data-name="Path 10607" d="M1016.44,1361.52a3.4,3.4,0,0,0,1.545,1.938c1.327.867,2.392,1.733,2.52,1.2s-.739-1.115-.945-2.1S1016.44,1361.52,1016.44,1361.52Z" transform="translate(-626.985 -966.294)" fill="#ffb27d"/>
    <path id="Path_10608" data-name="Path 10608" d="M1561.78,482.725H1409.7l8.107-36.035h135.866Z" transform="translate(-939.97 -236.135)" fill="#fba710"/>
    <rect id="Rectangle_6276" data-name="Rectangle 6276" width="13.948" height="13.948" transform="translate(496.792 221.308)" fill="#bdd1f9"/>
    <path id="Path_10609" data-name="Path 10609" d="M1544.55,496.91v15.231h15.241V496.91Zm13.948,13.946h-12.657V498.2H1558.5Z" transform="translate(-1048.404 -276.249)" fill="#163560"/>
    <rect id="Rectangle_6277" data-name="Rectangle 6277" width="13.948" height="1.263" transform="translate(504.392 221.306) rotate(90)" fill="#163560"/>
    <rect id="Rectangle_6278" data-name="Rectangle 6278" width="20.192" height="2.925" transform="translate(493.374 218.001)" fill="#163560"/>
    <rect id="Rectangle_6279" data-name="Rectangle 6279" width="13.948" height="13.948" transform="translate(538.674 221.308)" fill="#bdd1f9"/>
    <path id="Path_10610" data-name="Path 10610" d="M1751.93,496.91v15.231h15.241V496.91Zm13.948,13.946h-12.657V498.2h12.657Z" transform="translate(-1213.901 -276.249)" fill="#163560"/>
    <rect id="Rectangle_6280" data-name="Rectangle 6280" width="13.948" height="1.263" transform="translate(546.265 221.308) rotate(90)" fill="#163560"/>
    <rect id="Rectangle_6281" data-name="Rectangle 6281" width="20.192" height="2.925" transform="translate(535.106 218.001)" fill="#163560"/>
    <rect id="Rectangle_6282" data-name="Rectangle 6282" width="13.948" height="13.948" transform="translate(580.401 221.308)" fill="#bdd1f9"/>
    <path id="Path_10611" data-name="Path 10611" d="M1958.54,496.91v15.231h15.241V496.91Zm13.948,13.946h-12.655V498.2h12.657Z" transform="translate(-1378.784 -276.249)" fill="#163560"/>
    <rect id="Rectangle_6283" data-name="Rectangle 6283" width="13.948" height="1.263" transform="translate(587.983 221.308) rotate(90)" fill="#163560"/>
    <rect id="Rectangle_6284" data-name="Rectangle 6284" width="20.192" height="2.925" transform="translate(576.837 218.001)" fill="#163560"/>
    <path id="Path_10612" data-name="Path 10612" d="M543.948,1689.222h19.863c1.065-.9-.737-2.955-2.618-3.091a11.553,11.553,0,0,0-3.031.358c-.274-3.631-1.836-19.953-7.719-19.3-6.616.734,0,7.188,1.87,11.01a90.712,90.712,0,0,1,3.515,8.808c-.536.116-1.093.23-1.661.336-.877-2.692-4.14-11.748-8.287-11.222-4.872.619-2.915,4.25.538,6.406,2.534,1.583,5.643,3.837,7.122,4.924a21.219,21.219,0,0,1-3.885.312C546.252,1687.679,544.59,1688.682,543.948,1689.222Z" transform="translate(-249.657 -1210.056)" fill="#a8d29f"/>
    <path id="Path_10613" data-name="Path 10613" d="M2530.021,1709.33h-14.975c-.8-.681.554-2.226,1.971-2.328a8.668,8.668,0,0,1,2.286.27c.2-2.736,1.381-15.035,5.815-14.541,4.984.554,0,5.417-1.4,8.3a68.02,68.02,0,0,0-2.648,6.634c.4.088.823.172,1.251.252.66-2.028,3.119-8.852,6.245-8.454,3.669.465,2.2,3.2-.4,4.824-1.909,1.2-4.251,2.891-5.367,3.711a15.844,15.844,0,0,0,2.928.234A6.308,6.308,0,0,1,2530.021,1709.33Z" transform="translate(-1822.418 -1230.486)" fill="#a8d29f"/>
    <g id="man" transform="translate(544.041 312.083)">
      <path id="Path_10614" data-name="Path 10614" d="M1797.2,1112.217c.7,1.89,1.92,4.083,3.2,4.628a4.949,4.949,0,0,1,2.054,1.493l1.171-.681,1.4-.813s-.034-.154-.1-.4-.172-.6-.314-1a1.354,1.354,0,0,1-.166-1.243,2.89,2.89,0,0,0-.238-2.4c-.438-.643-.881-2.258-1.151-2.2-.653.112.322,2.32.042,2.728a.48.48,0,0,1-.628.214h-.01c-1.833-.8-4.057-5.152-5.042-4.566C1797.044,1108.171,1796.9,1111.412,1797.2,1112.217Z" transform="translate(-1793.574 -1074.832)" fill="#ffb27d"/>
      <path id="Path_10615" data-name="Path 10615" d="M1794.579,1106.465l-2.3,1.614a.363.363,0,0,1-.5-.086l-5.883-8.375a.358.358,0,0,1,.086-.5l2.3-1.615a.362.362,0,0,1,.5.088l5.889,8.367a.362.362,0,0,1-.092.508Z" transform="translate(-1784.608 -1066.448)" fill="#2b478b"/>
      <rect id="Rectangle_6285" data-name="Rectangle 6285" width="2.194" height="10.955" rx="1.097" transform="matrix(0.818, -0.575, 0.575, 0.818, 0, 33.647)" fill="#233862"/>
      <path id="Path_10616" data-name="Path 10616" d="M1855.434,1082.51s-11.69,20.39-15.93,24.141l-15.55-11.594a5.681,5.681,0,0,0-3.245,2.957s11.951,19.259,18.74,20.055c9.268,1.085,22.353-23.05,22.353-23.05Z" transform="translate(-1812.506 -1054.51)" fill="#233862"/>
      <path id="Path_10617" data-name="Path 10617" d="M2103.014,1722.244h6.748a4.1,4.1,0,0,0,1.845-3.095c.33-2.176,2.769-3.361,3.3-5.143s-2.176-4.284-2.176-4.284l-.452-.582-.47-.6-4.482,1.057s-.112,1.067-.178,2.426a30.961,30.961,0,0,0-.02,3.111c.132,2.372-.663,4.928-2.773,5.391C2102.8,1720.855,2102.872,1721.779,2103.014,1722.244Z" transform="translate(-2038.245 -1555.225)" fill="#2d4c7f"/>
      <path id="Path_10618" data-name="Path 10618" d="M1930.51,1743.706h15.445c.743-.907.47-4.252.358-5.345-.024-.22-.04-.348-.04-.348s-5.275-4.219-6.005-.989c-.022.1-.048.2-.078.3-.913,3.023-5,4.4-7.37,4.778A2.673,2.673,0,0,0,1930.51,1743.706Z" transform="translate(-1900.327 -1577.033)" fill="#2d4c7f"/>
      <path id="Path_10619" data-name="Path 10619" d="M1945.21,1339.025s.8,9.993,1.744,22c1.279,16.316,2.816,36.359,2.969,40.155.264,6.594,1.319,17.139,1.319,17.139s2.5,2.506,7.515,1.451a172.467,172.467,0,0,0,5.741-30.985c.02-.26.04-.524.06-.787,1.187-16.214,3.031-50.362,3.031-50.362Z" transform="translate(-1912.084 -1258.569)" fill="#f99746"/>
      <path id="Path_10620" data-name="Path 10620" d="M1945.21,1339.025s.8,9.993,1.744,22l17.543,27.76c.02-.26.04-.524.06-.787,1.187-16.214,3.031-50.362,3.031-50.362Z" transform="translate(-1912.084 -1258.569)" fill="#ed7d2b"/>
      <path id="Path_10621" data-name="Path 10621" d="M1964.76,1315.441s12.108,36.924,20.452,54.425,10.981,22.4,10.981,22.4,5.447-1.874,6.005-3.327c0,0-2.891-30.714-8.667-39.054-3.265-4.714-5.459-20.76-5.387-25.51s-.467-14.188-.467-14.188Z" transform="translate(-1927.721 -1236.614)" fill="#f99746"/>
      <path id="Path_10622" data-name="Path 10622" d="M1981.44,1026.865c5.641,1.78,15.4-3.025,15.4-3.025s-5.2-3.9-4.928-12.01l-4.356,3.507-2.962,2.386a35.7,35.7,0,0,0,.334,3.875v.02a3.456,3.456,0,0,1-1.327,3.2A12.612,12.612,0,0,0,1981.44,1026.865Z" transform="translate(-1941.062 -997.978)" fill="#ffb27d"/>
      <path id="Path_10623" data-name="Path 10623" d="M1997.17,1031.4a35.692,35.692,0,0,0,.334,3.875c3.285-.565,7.006-5.869,7.006-5.869a10.444,10.444,0,0,0-4.38-.4Z" transform="translate(-1953.643 -1011.654)" fill="#ed975d"/>
      <path id="Path_10624" data-name="Path 10624" d="M1981.285,979.009s9.318,1.547,10.193-4.27,2.667-9.536-3.247-10.771-7.406.813-8.169,2.682S1978.883,978.457,1981.285,979.009Z" transform="translate(-1939.483 -959.396)" fill="#ffb27d"/>
      <path id="Path_10625" data-name="Path 10625" d="M1941.339,1118.305a.922.922,0,0,0,.6.226c2.118-.03,8.3,1.147,13.522.611a39.025,39.025,0,0,0,12.495-3.6c.557-.248,1.836-.931,1.8-1.553-.018-.681-.086-1.667-.172-2.911a155.677,155.677,0,0,1-.308-20.338q.135-2.4.144-4.742c.042-11.626-2.262-21.853-6.9-25.314-.4-.282-2.824.9-5.056,2a7.929,7.929,0,0,1-5.6.723l-2.426,1.735a19.485,19.485,0,0,0-6.1,9.745c-.963,3.869-1.528,10.848-1.838,18.08-.14,3.277-.254,6.582-.282,9.718v.112c-.028.31-.028.651-.028.961C1941.084,1111.808,1941.2,1118.191,1941.339,1118.305Z" transform="translate(-1908.835 -1037.017)" fill="#2b478b"/>
      <path id="Path_10626" data-name="Path 10626" d="M2047.145,1180.1a155.588,155.588,0,0,1-.308-20.338q.135-2.4.144-4.742c-1.93-4.682-3.507-8.077-3.507-8.077h-4.864S2035.042,1171.3,2047.145,1180.1Z" transform="translate(-1986.395 -1106.043)" fill="#233862"/>
      <path id="Path_10627" data-name="Path 10627" d="M1981.8,957.413s-.955-.16-.8-1.477.152-3.039-.919-2.716-1.125,1.177-1.563.677-.448-2.6-3.635-2.756-4.48.961-5.963.31-1.559-2.895-1.559-2.895a2.562,2.562,0,0,0,1.059,1.057s-2.472-3.381.388-5.7,5.781-.8,7.437-.7c3.649.22,6.005.438,7.206,2.836S1984.142,955.115,1981.8,957.413Z" transform="translate(-1929.8 -942.63)" fill="#2b478b"/>
      <path id="Path_10628" data-name="Path 10628" d="M2132.57,1300.688s.625,4.466.669,5.046c.292,3.931-.262,4.31,1.878,5a3.155,3.155,0,0,0,3.133-.941s-1.5-.1-1.239-2.254c.3-2.488.142-1.781-1.365-3.8l-.351-3.731Z" transform="translate(-2061.939 -1228.472)" fill="#ffb27d"/>
      <path id="Path_10629" data-name="Path 10629" d="M2042.965,1116.221a16.011,16.011,0,0,1-3.651.2s-5.2-16.064-5.869-17.531S2018,1080.053,2018,1080.053l6.156-15.413s15.984,26.7,17.605,30.448c2.683,6.205,3.613,20.1,3.613,20.1a6.7,6.7,0,0,1-2.408,1.035Z" transform="translate(-1970.303 -1040.217)" fill="#2b478b"/>
      <path id="Path_10630" data-name="Path 10630" d="M2133.225,1328.61a6.479,6.479,0,0,0-.39,1.441c-.042,1.475-.452,2.158-.2,2.288.542.268,1.085-.885,1.291-1.885A2.237,2.237,0,0,0,2133.225,1328.61Z" transform="translate(-2061.926 -1251.347)" fill="#ffb27d"/>
    </g>
    <path id="Path_10631" data-name="Path 10631" d="M1581.662,827.841a1.2,1.2,0,1,0-1.2,1.2,1.2,1.2,0,0,0,1.2-1.2Z" transform="translate(-1076.166 -539.424)" fill="#fff"/>
    <path id="Path_10632" data-name="Path 10632" d="M1577.256,819.074a.4.4,0,0,1-.276-.11,2.679,2.679,0,0,0-1.946-.861,2.816,2.816,0,0,0-1.765.839.4.4,0,0,1-.6-.538,3.6,3.6,0,0,1,2.32-1.1,3.476,3.476,0,0,1,2.54,1.079.4.4,0,0,1-.272.695Z" transform="translate(-1070.81 -531.971)" fill="#fff"/>
    <path id="Path_10633" data-name="Path 10633" d="M1573.547,808.1a.4.4,0,0,1-.274-.108,4.493,4.493,0,0,0-3.257-1.427,4.7,4.7,0,0,0-2.955,1.4.4.4,0,1,1-.6-.536,5.432,5.432,0,0,1,3.511-1.67,5.253,5.253,0,0,1,3.849,1.645.4.4,0,0,1-.276.693Z" transform="translate(-1065.845 -522.761)" fill="#fff"/>
    <path id="Path_10634" data-name="Path 10634" d="M1569.615,797.262a.4.4,0,0,1-.274-.11,6.406,6.406,0,0,0-4.638-2.022,6.624,6.624,0,0,0-4.2,2,.4.4,0,1,1-.6-.538,7.37,7.37,0,0,1,4.762-2.264,7.159,7.159,0,0,1,5.231,2.24.4.4,0,0,1-.276.695Z" transform="translate(-1060.595 -513.632)" fill="#fff"/>
    <path id="Path_10635" data-name="Path 10635" d="M1165.7,802.975h-7.847a.523.523,0,0,1-.522-.522h0a.523.523,0,0,1,.522-.522h7.847a.523.523,0,0,1,.523.522h0A.523.523,0,0,1,1165.7,802.975Z" transform="translate(-739.41 -519.709)" fill="#fff"/>
    <path id="Path_10636" data-name="Path 10636" d="M1165.7,814.523h-7.847a.52.52,0,0,1-.522-.521h0a.522.522,0,0,1,.522-.522h7.847a.522.522,0,0,1,.523.522h0a.521.521,0,0,1-.523.521Z" transform="translate(-739.41 -528.927)" fill="#fff"/>
    <path id="Path_10637" data-name="Path 10637" d="M1165.7,826.833h-7.847a.521.521,0,0,1-.522-.521h0a.522.522,0,0,1,.522-.522h7.847a.522.522,0,0,1,.523.522h0a.521.521,0,0,1-.523.521Z" transform="translate(-739.41 -538.751)" fill="#fff"/>
    <path id="Path_10638" data-name="Path 10638" d="M729.25,431a10.2,10.2,0,0,1,9.758-4.58s9.989-8.587,20.642-1.145c0,0,11.324-1.844,19.711,1.6,5.591,2.294,7.438,4.7,7.438,4.7Z" transform="translate(-397.681 -217.156)" fill="#f8fcff"/>
    <path id="Path_10639" data-name="Path 10639" d="M964.25,279.013s6.405-11.476,21.733-10.209c0,0,22.249-19.125,45.976-2.55,0,0,25.222-4.108,43.9,3.557,12.455,5.108,16.566,10.469,16.566,10.469Z" transform="translate(-584.91 -86.989)" fill="#f8fcff"/>
    <path id="Path_10640" data-name="Path 10640" d="M857,515.168s4.876-8.551,16.542-7.607c0,0,16.935-14.252,34.992-1.9,0,0,19.2-3.061,33.413,2.648,9.478,3.8,12.611,7.807,12.611,7.807Z" transform="translate(-499.488 -279.213)" fill="#f8fcff"/>
    <circle id="Ellipse_1302" data-name="Ellipse 1302" cx="12.771" cy="12.771" r="12.771" transform="translate(456.279 399.153)" fill="#ebf2ff"/>
    <path id="Path_10641" data-name="Path 10641" d="M1314.952,1370.8c.368,11.01,19.481,27.964,19.481,27.964s17.935-18.2,17.567-29.2-8.96-19.643-19.191-19.3S1314.588,1359.809,1314.952,1370.8Zm7.571-1.423a10.921,10.921,0,1,1,11.28,10.549,10.921,10.921,0,0,1-11.28-10.549Z" transform="translate(-865.077 -956.572)" fill="#fba710"/>
    <rect id="Rectangle_6286" data-name="Rectangle 6286" width="509" height="1.385" rx="0.693" transform="translate(230.82 478.734)" fill="#2e3552"/>
  </g>
</svg>
